<?xml version="1.0" encoding="utf-8" standalone="no"?>
<!DOCTYPE svg PUBLIC "-//W3C//DTD SVG 1.1//EN"
  "http://www.w3.org/Graphics/SVG/1.1/DTD/svg11.dtd">
<!-- Created with matplotlib (https://matplotlib.org/) -->
<svg height="345.6pt" version="1.1" viewBox="0 0 460.8 345.6" width="460.8pt" xmlns="http://www.w3.org/2000/svg" xmlns:xlink="http://www.w3.org/1999/xlink">
 <metadata>
  <rdf:RDF xmlns:cc="http://creativecommons.org/ns#" xmlns:dc="http://purl.org/dc/elements/1.1/" xmlns:rdf="http://www.w3.org/1999/02/22-rdf-syntax-ns#">
   <cc:Work>
    <dc:type rdf:resource="http://purl.org/dc/dcmitype/StillImage"/>
    <dc:date>2020-07-30T02:39:58.776817</dc:date>
    <dc:format>image/svg+xml</dc:format>
    <dc:creator>
     <cc:Agent>
      <dc:title>Matplotlib v3.3.0, https://matplotlib.org/</dc:title>
     </cc:Agent>
    </dc:creator>
   </cc:Work>
  </rdf:RDF>
 </metadata>
 <defs>
  <style type="text/css">*{stroke-linecap:butt;stroke-linejoin:round;}</style>
 </defs>
 <g id="figure_1">
  <g id="patch_1">
   <path d="M 0 345.6 
L 460.8 345.6 
L 460.8 0 
L 0 0 
z
" style="fill:#ffffff;"/>
  </g>
  <g id="axes_1">
   <g id="patch_2">
    <path d="M 57.6 307.584 
L 219.927273 307.584 
L 219.927273 41.472 
L 57.6 41.472 
z
" style="fill:#ffffff;"/>
   </g>
   <g id="matplotlib.axis_1">
    <g id="xtick_1">
     <g id="line2d_1">
      <defs>
       <path d="M 0 0 
L 0 3.5 
" id="m06e4ee265c" style="stroke:#000000;stroke-width:0.8;"/>
      </defs>
      <g>
       <use style="stroke:#000000;stroke-width:0.8;" x="60.032024" xlink:href="#m06e4ee265c" y="307.584"/>
      </g>
     </g>
     <g id="text_1">
      <!-- $\mathdefault{0}$ -->
      <g transform="translate(57.541356 321.502498)scale(0.1 -0.1)">
       <defs>
        <path d="M 42 31.640625 
C 42 37.75 41.90625 48.125 37.703125 56.109375 
C 34 63.109375 28.09375 65.59375 22.90625 65.59375 
C 18.09375 65.59375 12 63.40625 8.203125 56.203125 
C 4.203125 48.71875 3.796875 39.4375 3.796875 31.640625 
C 3.796875 25.953125 3.90625 17.28125 7 9.671875 
C 11.296875 -0.609375 19 -2 22.90625 -2 
C 27.5 -2 34.5 -0.109375 38.59375 9.375 
C 41.59375 16.28125 42 24.359375 42 31.640625 
z
M 22.90625 -0.40625 
C 16.5 -0.40625 12.703125 5.078125 11.296875 12.6875 
C 10.203125 18.5625 10.203125 27.15625 10.203125 32.75 
C 10.203125 40.4375 10.203125 46.828125 11.5 52.921875 
C 13.40625 61.390625 19 64 22.90625 64 
C 27 64 32.296875 61.296875 34.203125 53.125 
C 35.5 47.4375 35.59375 40.734375 35.59375 32.75 
C 35.59375 26.25 35.59375 18.265625 34.40625 12.375 
C 32.296875 1.484375 26.40625 -0.40625 22.90625 -0.40625 
z
" id="CMR17-48"/>
       </defs>
       <use transform="scale(0.996264)" xlink:href="#CMR17-48"/>
      </g>
     </g>
    </g>
    <g id="xtick_2">
     <g id="line2d_2">
      <g>
       <use style="stroke:#000000;stroke-width:0.8;" x="101.252763" xlink:href="#m06e4ee265c" y="307.584"/>
      </g>
     </g>
     <g id="text_2">
      <!-- $\mathdefault{50}$ -->
      <g transform="translate(96.271428 321.502498)scale(0.1 -0.1)">
       <defs>
        <path d="M 11.40625 57.6875 
C 12.40625 57.28125 16.5 56 20.703125 56 
C 30 56 35.09375 61.109375 38 64.0625 
C 38 64.953125 38 65.5 37.40625 65.5 
C 37.296875 65.5 37.09375 65.5 36.296875 65.046875 
C 32.796875 63.40625 28.703125 62.078125 23.703125 62.078125 
C 20.703125 62.078125 16.203125 62.484375 11.296875 64.671875 
C 10.203125 65.171875 10 65.171875 9.90625 65.171875 
C 9.40625 65.171875 9.296875 65.0625 9.296875 63.078125 
L 9.296875 34.421875 
C 9.296875 32.640625 9.296875 32.140625 10.296875 32.140625 
C 10.796875 32.140625 11 32.34375 11.5 33.03125 
C 14.703125 37.515625 19.09375 39.40625 24.09375 39.40625 
C 27.59375 39.40625 35.09375 37.21875 35.09375 20.140625 
C 35.09375 16.953125 35.09375 11.171875 32.09375 6.578125 
C 29.59375 2.484375 25.703125 0.390625 21.40625 0.390625 
C 14.796875 0.390625 8.09375 5 6.296875 12.71875 
C 6.703125 12.609375 7.5 12.421875 7.90625 12.421875 
C 9.203125 12.421875 11.703125 13.125 11.703125 16.21875 
C 11.703125 18.90625 9.796875 20 7.90625 20 
C 5.59375 20 4.09375 18.59375 4.09375 15.796875 
C 4.09375 7.09375 11 -2 21.59375 -2 
C 31.90625 -2 41.703125 6.875 41.703125 19.75 
C 41.703125 31.71875 33.90625 41 24.203125 41 
C 19.09375 41 14.796875 39.109375 11.40625 35.53125 
z
" id="CMR17-53"/>
       </defs>
       <use transform="scale(0.996264)" xlink:href="#CMR17-53"/>
       <use transform="translate(45.690477 0)scale(0.996264)" xlink:href="#CMR17-48"/>
      </g>
     </g>
    </g>
    <g id="xtick_3">
     <g id="line2d_3">
      <g>
       <use style="stroke:#000000;stroke-width:0.8;" x="142.473503" xlink:href="#m06e4ee265c" y="307.584"/>
      </g>
     </g>
     <g id="text_3">
      <!-- $\mathdefault{100}$ -->
      <g transform="translate(135.0015 321.502498)scale(0.1 -0.1)">
       <defs>
        <path d="M 26.59375 63.40625 
C 26.59375 65.5 26.5 65.5 25.09375 65.5 
C 21.203125 61.1875 15.296875 59.796875 9.703125 59.796875 
C 9.40625 59.796875 8.90625 59.796875 8.796875 59.5 
C 8.703125 59.296875 8.703125 59.09375 8.703125 57 
C 11.796875 57 17 57.59375 21 59.984375 
L 21 7.203125 
C 21 3.6875 20.796875 2.5 12.203125 2.5 
L 9.203125 2.5 
L 9.203125 0 
C 14 0 19 0 23.796875 0 
C 28.59375 0 33.59375 0 38.40625 0 
L 38.40625 2.5 
L 35.40625 2.5 
C 26.796875 2.5 26.59375 3.59375 26.59375 7.15625 
z
" id="CMR17-49"/>
       </defs>
       <use transform="scale(0.996264)" xlink:href="#CMR17-49"/>
       <use transform="translate(45.690477 0)scale(0.996264)" xlink:href="#CMR17-48"/>
       <use transform="translate(91.380954 0)scale(0.996264)" xlink:href="#CMR17-48"/>
      </g>
     </g>
    </g>
    <g id="xtick_4">
     <g id="line2d_4">
      <g>
       <use style="stroke:#000000;stroke-width:0.8;" x="183.694243" xlink:href="#m06e4ee265c" y="307.584"/>
      </g>
     </g>
     <g id="text_4">
      <!-- $\mathdefault{150}$ -->
      <g transform="translate(176.22224 321.502498)scale(0.1 -0.1)">
       <use transform="scale(0.996264)" xlink:href="#CMR17-49"/>
       <use transform="translate(45.690477 0)scale(0.996264)" xlink:href="#CMR17-53"/>
       <use transform="translate(91.380954 0)scale(0.996264)" xlink:href="#CMR17-48"/>
      </g>
     </g>
    </g>
    <g id="text_5">
     <!-- Days from outbreak -->
     <g transform="translate(95.329195 334.358175)scale(0.1 -0.1)">
      <defs>
       <path d="M 5.203125 68 
L 5.203125 65.40625 
C 12.09375 65.40625 13.203125 65.40625 13.203125 60.9375 
L 13.203125 7.0625 
C 13.203125 2.59375 12.09375 2.59375 5.203125 2.59375 
L 5.203125 0 
L 37 0 
C 53.09375 0 66 14.734375 66 33.453125 
C 66 52.28125 53.296875 68 37 68 
z
M 23.796875 2.59375 
C 19.796875 2.59375 19.59375 3.078125 19.59375 6.46875 
L 19.59375 61.53125 
C 19.59375 64.921875 19.796875 65.40625 23.796875 65.40625 
L 35 65.40625 
C 43.296875 65.40625 58.59375 60.53125 58.59375 33.453125 
C 58.59375 19.40625 54.5 13.734375 52.59375 11.046875 
C 50.203125 7.96875 44.5 2.59375 35 2.59375 
z
" id="CMR17-68"/>
       <path d="M 36 25.828125 
C 36 32.375 36 35.84375 31.796875 39.734375 
C 28.09375 43 23.796875 44 20.40625 44 
C 12.5 44 6.796875 37.609375 6.796875 30.796875 
C 6.796875 27 9.796875 27 10.40625 27 
C 11.703125 27 14 27.78125 14 30.53125 
C 14 33 12.09375 34.078125 10.40625 34.078125 
C 10 34.078125 9.5 33.96875 9.203125 33.875 
C 11.296875 40.5 16.703125 42.40625 20.203125 42.40625 
C 25.203125 42.40625 30.703125 37.953125 30.703125 29.453125 
L 30.703125 25 
C 24.796875 25 17.703125 24.203125 12.09375 21.203125 
C 5.796875 17.703125 4 12.703125 4 8.90625 
C 4 1.203125 13 -1 18.296875 -1 
C 23.796875 -1 28.90625 2.171875 31.09375 7.984375 
C 31.296875 3.640625 34.09375 -0.28125 38.5 -0.28125 
C 40.59375 -0.28125 45.90625 1.09375 45.90625 8.859375 
L 45.90625 14.375 
L 44.09375 14.375 
L 44.09375 8.78125 
C 44.09375 2.78125 41.40625 2 40.09375 2 
C 36 2 36 7.15625 36 11.53125 
z
M 30.703125 13.59375 
C 30.703125 4.953125 24.5 0.59375 19 0.59375 
C 14 0.59375 10.09375 4.296875 10.09375 8.90625 
C 10.09375 11.890625 11.40625 17.1875 17.203125 20.390625 
C 22 23.09375 27.5 23.5 30.703125 23.5 
z
" id="CMR17-97"/>
       <path d="M 39 34.328125 
C 41.5 40.40625 46 40.40625 47.40625 40.40625 
L 47.40625 43 
C 45.5 43 43 43 41.09375 43 
C 39 43 35.703125 43 33.703125 43.09375 
L 33.703125 40.5 
C 37.5 40.203125 37.59375 37.40625 37.59375 36.609375 
C 37.59375 35.625 37.40625 35.125 36.90625 33.921875 
L 26 7.015625 
L 14.09375 36.03125 
C 13.59375 37.21875 13.59375 37.90625 13.59375 38.015625 
C 13.59375 40.203125 15.90625 40.40625 18.296875 40.40625 
L 18.296875 43.09375 
C 15.90625 43 11.59375 43 9.09375 43 
C 6.40625 43 3.203125 43 1 43.09375 
L 1 40.40625 
C 6.40625 40.40625 7 39.90625 8.296875 36.71875 
L 23.203125 0.234375 
C 18.703125 -11.53125 16.09375 -18.40625 9.796875 -18.40625 
C 8.703125 -18.40625 6.203125 -18.109375 4.40625 -16.3125 
C 6.703125 -16.109375 7.703125 -14.71875 7.703125 -13.015625 
C 7.703125 -11.328125 6.5 -9.828125 4.5 -9.828125 
C 2.296875 -9.828125 1.203125 -11.328125 1.203125 -13.125 
C 1.203125 -17.109375 5.296875 -20 9.796875 -20 
C 15.59375 -20 19.203125 -14.40625 21.203125 -9.4375 
z
" id="CMR17-121"/>
       <path d="M 30.90625 42.140625 
C 30.90625 43.953125 30.796875 44.046875 30.203125 44.046875 
C 29.796875 44.046875 29.703125 43.953125 28.5 42.453125 
C 28.203125 42.046875 27.296875 41.03125 27 40.640625 
C 23.796875 44.046875 19.296875 44.046875 17.59375 44.046875 
C 6.5 44.046875 2.5 38.234375 2.5 32.4375 
C 2.5 23.40625 12.703125 21.328125 15.59375 20.703125 
C 21.90625 19.421875 24.09375 19.015625 26.203125 17.203125 
C 27.5 16.015625 29.703125 13.8125 29.703125 10.21875 
C 29.703125 6 27.296875 0.59375 18.09375 0.59375 
C 9.40625 0.59375 6.296875 7.1875 4.5 15.953125 
C 4.203125 17.34375 4.203125 17.453125 3.40625 17.453125 
C 2.59375 17.453125 2.5 17.34375 2.5 15.359375 
L 2.5 0.984375 
C 2.5 -0.796875 2.59375 -0.90625 3.203125 -0.90625 
C 3.703125 -0.90625 3.796875 -0.796875 4.296875 0 
C 4.90625 0.890625 6.40625 3.296875 7 4.3125 
C 9 1.609375 12.5 -1 18.09375 -1 
C 28 -1 33.296875 4.421875 33.296875 12.25 
C 33.296875 17.375 30.59375 20.078125 29.296875 21.28125 
C 26.296875 24.390625 22.796875 25.09375 18.59375 25.890625 
C 13.09375 27.109375 6.09375 28.515625 6.09375 34.640625 
C 6.09375 37.234375 7.5 42.765625 17.59375 42.765625 
C 28.296875 42.765625 28.90625 32.71875 29.09375 29.5 
C 29.203125 29 29.703125 28.890625 30 28.890625 
C 30.90625 28.890625 30.90625 29.203125 30.90625 30.90625 
z
" id="CMR17-115"/>
       <path d="M 15.296875 40 
L 26.703125 40 
L 26.703125 42.578125 
L 15.09375 42.578125 
L 15.09375 54.59375 
C 15.09375 62.84375 19.296875 68 23.59375 68 
C 24.90625 68 26.40625 67.609375 27.40625 66.90625 
C 26.59375 66.703125 24.5 66.015625 24.5 63.546875 
C 24.5 60.953125 26.5 60.15625 27.90625 60.15625 
C 29.296875 60.15625 31.296875 60.953125 31.296875 63.546875 
C 31.296875 67.3125 27.703125 69.59375 23.703125 69.59375 
C 18 69.59375 10.203125 64.9375 10.203125 54.390625 
L 10.203125 42.578125 
L 2.203125 42.578125 
L 2.203125 40 
L 10.203125 40 
L 10.203125 6.671875 
C 10.203125 2.875 9.796875 2.390625 3.40625 2.390625 
L 3.40625 -0.203125 
C 5.796875 0 10.40625 0 13 0 
C 15.90625 0 21 0 23.703125 -0.203125 
L 23.703125 2.390625 
C 16.5 2.390625 15.296875 2.390625 15.296875 6.859375 
z
" id="CMR17-102"/>
       <path d="M 15 23.390625 
C 15 33 19.09375 42 26.59375 42 
C 27.296875 42 28 41.90625 28.703125 41.59375 
C 28.703125 41.59375 26.5 40.890625 26.5 38.3125 
C 26.5 35.90625 28.40625 34.90625 29.90625 34.90625 
C 31.09375 34.90625 33.296875 35.609375 33.296875 38.40625 
C 33.296875 41.609375 30.09375 43.59375 26.703125 43.59375 
C 19.09375 43.59375 15.796875 36.203125 14.796875 32.703125 
L 14.703125 32.703125 
L 14.703125 43.59375 
L 3.09375 42.5 
L 3.09375 39.90625 
C 9 39.90625 9.90625 39.296875 9.90625 34.5 
L 9.90625 6.6875 
C 9.90625 2.875 9.5 2.390625 3.09375 2.390625 
L 3.09375 -0.203125 
C 5.5 0 10.09375 0 12.703125 0 
C 15.59375 0 20.703125 0 23.40625 -0.203125 
L 23.40625 2.390625 
C 16.203125 2.390625 15 2.390625 15 6.875 
z
" id="CMR17-114"/>
       <path d="M 43.09375 21.1875 
C 43.09375 34 33.796875 44 22.90625 44 
C 12 44 2.703125 34 2.703125 21.1875 
C 2.703125 8.609375 12 -1 22.90625 -1 
C 33.796875 -1 43.09375 8.609375 43.09375 21.1875 
z
M 22.90625 0.796875 
C 18.203125 0.796875 14.203125 3.59375 11.90625 7.5 
C 9.40625 11.984375 9.09375 17.59375 9.09375 22 
C 9.09375 26.203125 9.296875 31.40625 11.90625 35.90625 
C 13.90625 39.203125 17.796875 42.40625 22.90625 42.40625 
C 27.40625 42.40625 31.203125 39.90625 33.59375 36.40625 
C 36.703125 31.703125 36.703125 25.109375 36.703125 22 
C 36.703125 18.09375 36.5 12.109375 33.796875 7.296875 
C 31 2.703125 26.703125 0.796875 22.90625 0.796875 
z
" id="CMR17-111"/>
       <path d="M 67.59375 30.203125 
C 67.59375 35.1875 66.703125 43.59375 54.796875 43.59375 
C 48 43.59375 43.296875 39 41.5 33.609375 
L 41.40625 33.609375 
C 40.203125 41.8125 34.296875 43.59375 28.703125 43.59375 
C 20.796875 43.59375 16.703125 37.5 15.203125 33.5 
L 15.09375 33.5 
L 15.09375 43.59375 
L 3.296875 42.5 
L 3.296875 39.90625 
C 9.203125 39.90625 10.09375 39.296875 10.09375 34.5 
L 10.09375 6.6875 
C 10.09375 2.875 9.703125 2.390625 3.296875 2.390625 
L 3.296875 -0.203125 
C 5.703125 0 10.09375 0 12.703125 0 
C 15.296875 0 19.796875 0 22.203125 -0.203125 
L 22.203125 2.390625 
C 15.796875 2.390625 15.40625 2.78125 15.40625 6.6875 
L 15.40625 25.90625 
C 15.40625 35.109375 21 42 28 42 
C 35.40625 42 36.203125 35.40625 36.203125 30.59375 
L 36.203125 6.6875 
C 36.203125 2.875 35.796875 2.390625 29.40625 2.390625 
L 29.40625 -0.203125 
C 31.796875 0 36.203125 0 38.796875 0 
C 41.40625 0 45.90625 0 48.296875 -0.203125 
L 48.296875 2.390625 
C 41.90625 2.390625 41.5 2.78125 41.5 6.6875 
L 41.5 25.90625 
C 41.5 35.109375 47.09375 42 54.09375 42 
C 61.5 42 62.296875 35.40625 62.296875 30.59375 
L 62.296875 6.6875 
C 62.296875 2.875 61.90625 2.390625 55.5 2.390625 
L 55.5 -0.203125 
C 57.90625 0 62.296875 0 64.90625 0 
C 67.5 0 72 0 74.40625 -0.203125 
L 74.40625 2.390625 
C 68 2.390625 67.59375 2.78125 67.59375 6.6875 
z
" id="CMR17-109"/>
       <path d="M 29.40625 42.078125 
L 29.40625 39.5 
C 35.296875 39.5 36.203125 38.890625 36.203125 34.15625 
L 36.203125 16.125 
C 36.203125 7.8125 31.703125 0.59375 24.296875 0.59375 
C 16.09375 0.59375 15.40625 5.4375 15.40625 10.59375 
L 15.40625 43.171875 
L 3.296875 42.078125 
L 3.296875 39.5 
C 7.296875 39.5 10 39.5 10.09375 35.53125 
L 10.09375 16.53125 
C 10.09375 9.890625 10.09375 5.640625 12.703125 2.859375 
C 14 1.578125 16.5 -1 23.703125 -1 
C 32.203125 -1 35.5 5.890625 36.296875 7.90625 
L 36.40625 7.90625 
L 36.40625 -0.984375 
L 48.296875 -0.984375 
L 48.296875 2 
C 42.40625 2 41.5 2.59375 41.5 7.390625 
L 41.5 43.171875 
z
" id="CMR17-117"/>
       <path d="M 15.09375 40 
L 29.09375 40 
L 29.09375 42.578125 
L 15.09375 42.578125 
L 15.09375 61 
L 13.296875 61 
C 13.09375 50.703125 9.59375 41.6875 1.09375 41.6875 
L 1.09375 40 
L 9.796875 40 
L 9.796875 12.046875 
C 9.796875 10.15625 9.796875 -1 21.40625 -1 
C 27.296875 -1 30.703125 4.78125 30.703125 12.140625 
L 30.703125 17.8125 
L 28.90625 17.8125 
L 28.90625 12.234375 
C 28.90625 5.375 26.203125 0.796875 22 0.796875 
C 19.09375 0.796875 15.09375 2.78125 15.09375 11.84375 
z
" id="CMR17-116"/>
       <path d="M 15 68.6875 
L 3.09375 67.59375 
L 3.09375 65 
C 9 65 9.90625 64.40625 9.90625 59.640625 
L 9.90625 -0.203125 
L 11.703125 -0.203125 
L 14.59375 6.890625 
C 17.5 2.203125 21.796875 -1 27.59375 -1 
C 37.59375 -1 47.703125 7.8125 47.703125 21.40625 
C 47.703125 34.1875 38.703125 43.59375 28.59375 43.59375 
C 22.40625 43.59375 18 40.296875 15 36.40625 
z
M 15.203125 31.3125 
C 15.203125 33.09375 15.203125 33.40625 16.59375 35.5 
C 20.5 41.515625 26.09375 42 28 42 
C 31 42 41.296875 40.390625 41.296875 21.5 
C 41.296875 1.6875 29.5 0.59375 27.09375 0.59375 
C 24 0.59375 19.5 1.78125 16.296875 7.59375 
C 15.203125 9.5 15.203125 9.703125 15.203125 11.484375 
z
" id="CMR17-98"/>
       <path d="M 38.09375 23 
C 38.5 23.40625 38.5 23.609375 38.5 24.625 
C 38.5 34.96875 33.09375 44 21.703125 44 
C 11.09375 44 2.703125 33.890625 2.703125 21.609375 
C 2.703125 8.609375 12.203125 -1 22.796875 -1 
C 34 -1 38.40625 9.484375 38.40625 11.5625 
C 38.40625 12.25 37.796875 12.25 37.59375 12.25 
C 36.90625 12.25 36.796875 12.046875 36.40625 10.875 
C 34.203125 4.140625 28.703125 0.796875 23.5 0.796875 
C 19.203125 0.796875 14.90625 3.171875 12.203125 7.5 
C 9.09375 12.546875 9.09375 18.375 9.09375 23 
z
M 9.203125 24.5 
C 9.90625 39.140625 17.59375 42.40625 21.59375 42.40625 
C 28.40625 42.40625 33 35.890625 33.09375 24.5 
z
" id="CMR17-101"/>
       <path d="M 26.09375 26.140625 
C 26 26.34375 25.5 26.9375 25.5 27.234375 
C 25.5 27.4375 32.59375 33.921875 33.5 34.71875 
C 39.203125 39.5 42.796875 40 45.40625 40 
L 45.40625 42.703125 
C 44.796875 42.703125 44.59375 42.703125 44.5 42.5 
L 39.59375 42.5 
C 36.796875 42.5 32.5 42.5 29.796875 42.703125 
L 29.796875 40.09375 
C 31.203125 39.984375 32.203125 39.1875 32.203125 37.796875 
C 32.203125 35.796875 30.203125 33.90625 30.09375 33.90625 
L 15 20.140625 
L 15 68.6875 
L 3.09375 67.59375 
L 3.09375 65 
C 9 65 9.90625 64.40625 9.90625 59.640625 
L 9.90625 6.65625 
C 9.90625 2.875 9.5 2.390625 3.09375 2.390625 
L 3.09375 -0.203125 
C 5.5 0 9.90625 0 12.40625 0 
C 14.90625 0 19.296875 0 21.703125 -0.203125 
L 21.703125 2.390625 
C 15.296875 2.390625 14.90625 2.78125 14.90625 6.6875 
L 14.90625 17.65625 
L 21.796875 23.9375 
L 31.90625 8.96875 
C 33.09375 7.171875 34.09375 5.765625 34.09375 4.46875 
C 34.09375 2.6875 32.296875 2.390625 31.09375 2.390625 
L 31.09375 -0.203125 
C 33.5 0 37.796875 0 40.296875 0 
C 42.09375 0 45.796875 0 47.5 0 
L 47.5 2.390625 
C 42.796875 2.390625 41.703125 3.28125 38.703125 7.671875 
z
" id="CMR17-107"/>
      </defs>
      <use transform="scale(0.996264)" xlink:href="#CMR17-68"/>
      <use transform="translate(70.393556 0)scale(0.996264)" xlink:href="#CMR17-97"/>
      <use transform="translate(113.481579 0)scale(0.996264)" xlink:href="#CMR17-121"/>
      <use transform="translate(161.774495 0)scale(0.996264)" xlink:href="#CMR17-115"/>
      <use transform="translate(227.651799 0)scale(0.996264)" xlink:href="#CMR17-102"/>
      <use transform="translate(255.125311 0)scale(0.996264)" xlink:href="#CMR17-114"/>
      <use transform="translate(290.406079 0)scale(0.996264)" xlink:href="#CMR17-111"/>
      <use transform="translate(336.096556 0)scale(0.996264)" xlink:href="#CMR17-109"/>
      <use transform="translate(443.092112 0)scale(0.996264)" xlink:href="#CMR17-111"/>
      <use transform="translate(488.78259 0)scale(0.996264)" xlink:href="#CMR17-117"/>
      <use transform="translate(539.677959 0)scale(0.996264)" xlink:href="#CMR17-116"/>
      <use transform="translate(574.958727 0)scale(0.996264)" xlink:href="#CMR17-98"/>
      <use transform="translate(625.854097 0)scale(0.996264)" xlink:href="#CMR17-114"/>
      <use transform="translate(661.134865 0)scale(0.996264)" xlink:href="#CMR17-101"/>
      <use transform="translate(701.620525 0)scale(0.996264)" xlink:href="#CMR17-97"/>
      <use transform="translate(747.311002 0)scale(0.996264)" xlink:href="#CMR17-107"/>
     </g>
    </g>
   </g>
   <g id="matplotlib.axis_2">
    <g id="ytick_1">
     <g id="line2d_5">
      <defs>
       <path d="M 0 0 
L -3.5 0 
" id="m7aa97cc3ef" style="stroke:#000000;stroke-width:0.8;"/>
      </defs>
      <g>
       <use style="stroke:#000000;stroke-width:0.8;" x="57.6" xlink:href="#m7aa97cc3ef" y="295.488"/>
      </g>
     </g>
     <g id="text_6">
      <!-- $\mathdefault{0}$ -->
      <g transform="translate(45.618665 298.947249)scale(0.1 -0.1)">
       <use transform="scale(0.996264)" xlink:href="#CMR17-48"/>
      </g>
     </g>
    </g>
    <g id="ytick_2">
     <g id="line2d_6">
      <g>
       <use style="stroke:#000000;stroke-width:0.8;" x="57.6" xlink:href="#m7aa97cc3ef" y="259.529105"/>
      </g>
     </g>
     <g id="text_7">
      <!-- $\mathdefault{2000}$ -->
      <g transform="translate(30.674659 262.988354)scale(0.1 -0.1)">
       <defs>
        <path d="M 41.703125 15.453125 
L 39.90625 15.453125 
C 38.90625 8.375 38.09375 7.171875 37.703125 6.5625 
C 37.203125 5.765625 30 5.765625 28.59375 5.765625 
L 9.40625 5.765625 
C 13 9.671875 20 16.75 28.5 24.953125 
C 34.59375 30.734375 41.703125 37.53125 41.703125 47.421875 
C 41.703125 59.21875 32.296875 66 21.796875 66 
C 10.796875 66 4.09375 56.3125 4.09375 47.34375 
C 4.09375 43.4375 7 42.9375 8.203125 42.9375 
C 9.203125 42.9375 12.203125 43.546875 12.203125 47.03125 
C 12.203125 50.109375 9.59375 51 8.203125 51 
C 7.59375 51 7 50.90625 6.59375 50.703125 
C 8.5 59.21875 14.296875 63.40625 20.40625 63.40625 
C 29.09375 63.40625 34.796875 56.515625 34.796875 47.421875 
C 34.796875 38.734375 29.703125 31.25 24 24.75 
L 4.09375 2.28125 
L 4.09375 0 
L 39.296875 0 
z
" id="CMR17-50"/>
       </defs>
       <use transform="scale(0.996264)" xlink:href="#CMR17-50"/>
       <use transform="translate(45.690477 0)scale(0.996264)" xlink:href="#CMR17-48"/>
       <use transform="translate(91.380954 0)scale(0.996264)" xlink:href="#CMR17-48"/>
       <use transform="translate(137.071431 0)scale(0.996264)" xlink:href="#CMR17-48"/>
      </g>
     </g>
    </g>
    <g id="ytick_3">
     <g id="line2d_7">
      <g>
       <use style="stroke:#000000;stroke-width:0.8;" x="57.6" xlink:href="#m7aa97cc3ef" y="223.570209"/>
      </g>
     </g>
     <g id="text_8">
      <!-- $\mathdefault{4000}$ -->
      <g transform="translate(30.674659 227.029458)scale(0.1 -0.1)">
       <defs>
        <path d="M 33.59375 64.40625 
C 33.59375 66.5 33.5 66.5 31.703125 66.5 
L 2 19.59375 
L 2 17 
L 27.796875 17 
L 27.796875 7.140625 
C 27.796875 3.5 27.59375 2.5 20.59375 2.5 
L 18.703125 2.5 
L 18.703125 0 
C 21.90625 0 27.296875 0 30.703125 0 
C 34.09375 0 39.5 0 42.703125 0 
L 42.703125 2.5 
L 40.796875 2.5 
C 33.796875 2.5 33.59375 3.5 33.59375 7.140625 
L 33.59375 17 
L 43.796875 17 
L 43.796875 19.59375 
L 33.59375 19.59375 
z
M 28.09375 57.859375 
L 28.09375 19.59375 
L 4 19.59375 
z
" id="CMR17-52"/>
       </defs>
       <use transform="scale(0.996264)" xlink:href="#CMR17-52"/>
       <use transform="translate(45.690477 0)scale(0.996264)" xlink:href="#CMR17-48"/>
       <use transform="translate(91.380954 0)scale(0.996264)" xlink:href="#CMR17-48"/>
       <use transform="translate(137.071431 0)scale(0.996264)" xlink:href="#CMR17-48"/>
      </g>
     </g>
    </g>
    <g id="ytick_4">
     <g id="line2d_8">
      <g>
       <use style="stroke:#000000;stroke-width:0.8;" x="57.6" xlink:href="#m7aa97cc3ef" y="187.611314"/>
      </g>
     </g>
     <g id="text_9">
      <!-- $\mathdefault{6000}$ -->
      <g transform="translate(30.674659 191.070563)scale(0.1 -0.1)">
       <defs>
        <path d="M 10.59375 34 
C 10.59375 57.65625 21.796875 63 28.296875 63 
C 30.40625 63 35.5 62.640625 37.5 59 
C 35.90625 59 32.90625 59 32.90625 55.515625 
C 32.90625 52.828125 35.09375 51.921875 36.5 51.921875 
C 37.40625 51.921875 40.09375 52.3125 40.09375 55.625 
C 40.09375 61.78125 35.09375 65.296875 28.203125 65.296875 
C 16.296875 65.296875 3.796875 52.96875 3.796875 31 
C 3.796875 3.953125 15.09375 -2 23.09375 -2 
C 32.796875 -2 42 6.671875 42 20.046875 
C 42 32.515625 33.90625 41.59375 23.703125 41.59375 
C 17.59375 41.59375 13.09375 37.609375 10.59375 30.625 
z
M 23.09375 0.390625 
C 10.796875 0.390625 10.796875 18.75 10.796875 22.4375 
C 10.796875 29.625 14.203125 40 23.5 40 
C 25.203125 40 30.09375 40 33.40625 33.125 
C 35.203125 29.21875 35.203125 25.140625 35.203125 20.140625 
C 35.203125 14.75 35.203125 10.78125 33.09375 6.78125 
C 30.90625 2.671875 27.703125 0.390625 23.09375 0.390625 
z
" id="CMR17-54"/>
       </defs>
       <use transform="scale(0.996264)" xlink:href="#CMR17-54"/>
       <use transform="translate(45.690477 0)scale(0.996264)" xlink:href="#CMR17-48"/>
       <use transform="translate(91.380954 0)scale(0.996264)" xlink:href="#CMR17-48"/>
       <use transform="translate(137.071431 0)scale(0.996264)" xlink:href="#CMR17-48"/>
      </g>
     </g>
    </g>
    <g id="ytick_5">
     <g id="line2d_9">
      <g>
       <use style="stroke:#000000;stroke-width:0.8;" x="57.6" xlink:href="#m7aa97cc3ef" y="151.652418"/>
      </g>
     </g>
     <g id="text_10">
      <!-- $\mathdefault{8000}$ -->
      <g transform="translate(30.674659 155.111667)scale(0.1 -0.1)">
       <defs>
        <path d="M 27.203125 35.375 
C 33.5 38.546875 39.90625 43.328125 39.90625 50.984375 
C 39.90625 60.015625 31.09375 65.296875 23 65.296875 
C 13.90625 65.296875 5.90625 58.734375 5.90625 49.6875 
C 5.90625 47.203125 6.5 42.921875 10.40625 39.140625 
C 11.40625 38.15625 15.59375 35.171875 18.296875 33.28125 
C 13.796875 30.984375 3.296875 25.53125 3.296875 14.59375 
C 3.296875 4.359375 13.09375 -2 22.796875 -2 
C 33.5 -2 42.5 5.65625 42.5 15.78125 
C 42.5 24.84375 36.40625 29.015625 32.40625 31.703125 
z
M 14.09375 44.09375 
C 13.296875 44.59375 9.296875 47.671875 9.296875 52.359375 
C 9.296875 58.421875 15.59375 63 22.796875 63 
C 30.703125 63 36.5 57.4375 36.5 50.96875 
C 36.5 41.703125 26.09375 36.421875 25.59375 36.421875 
C 25.5 36.421875 25.40625 36.421875 24.59375 37.03125 
z
M 32.5 23.734375 
C 34 22.640625 38.796875 19.375 38.796875 13.296875 
C 38.796875 5.953125 31.40625 0.390625 23 0.390625 
C 13.90625 0.390625 7 6.84375 7 14.6875 
C 7 22.546875 13.09375 29.09375 20 32.1875 
z
" id="CMR17-56"/>
       </defs>
       <use transform="scale(0.996264)" xlink:href="#CMR17-56"/>
       <use transform="translate(45.690477 0)scale(0.996264)" xlink:href="#CMR17-48"/>
       <use transform="translate(91.380954 0)scale(0.996264)" xlink:href="#CMR17-48"/>
       <use transform="translate(137.071431 0)scale(0.996264)" xlink:href="#CMR17-48"/>
      </g>
     </g>
    </g>
    <g id="ytick_6">
     <g id="line2d_10">
      <g>
       <use style="stroke:#000000;stroke-width:0.8;" x="57.6" xlink:href="#m7aa97cc3ef" y="115.693523"/>
      </g>
     </g>
     <g id="text_11">
      <!-- $\mathdefault{10000}$ -->
      <g transform="translate(25.693324 119.152772)scale(0.1 -0.1)">
       <use transform="scale(0.996264)" xlink:href="#CMR17-49"/>
       <use transform="translate(45.690477 0)scale(0.996264)" xlink:href="#CMR17-48"/>
       <use transform="translate(91.380954 0)scale(0.996264)" xlink:href="#CMR17-48"/>
       <use transform="translate(137.071431 0)scale(0.996264)" xlink:href="#CMR17-48"/>
       <use transform="translate(182.761908 0)scale(0.996264)" xlink:href="#CMR17-48"/>
      </g>
     </g>
    </g>
    <g id="ytick_7">
     <g id="line2d_11">
      <g>
       <use style="stroke:#000000;stroke-width:0.8;" x="57.6" xlink:href="#m7aa97cc3ef" y="79.734627"/>
      </g>
     </g>
     <g id="text_12">
      <!-- $\mathdefault{12000}$ -->
      <g transform="translate(25.693324 83.193876)scale(0.1 -0.1)">
       <use transform="scale(0.996264)" xlink:href="#CMR17-49"/>
       <use transform="translate(45.690477 0)scale(0.996264)" xlink:href="#CMR17-50"/>
       <use transform="translate(91.380954 0)scale(0.996264)" xlink:href="#CMR17-48"/>
       <use transform="translate(137.071431 0)scale(0.996264)" xlink:href="#CMR17-48"/>
       <use transform="translate(182.761908 0)scale(0.996264)" xlink:href="#CMR17-48"/>
      </g>
     </g>
    </g>
    <g id="ytick_8">
     <g id="line2d_12">
      <g>
       <use style="stroke:#000000;stroke-width:0.8;" x="57.6" xlink:href="#m7aa97cc3ef" y="43.775732"/>
      </g>
     </g>
     <g id="text_13">
      <!-- $\mathdefault{14000}$ -->
      <g transform="translate(25.693324 47.234981)scale(0.1 -0.1)">
       <use transform="scale(0.996264)" xlink:href="#CMR17-49"/>
       <use transform="translate(45.690477 0)scale(0.996264)" xlink:href="#CMR17-52"/>
       <use transform="translate(91.380954 0)scale(0.996264)" xlink:href="#CMR17-48"/>
       <use transform="translate(137.071431 0)scale(0.996264)" xlink:href="#CMR17-48"/>
       <use transform="translate(182.761908 0)scale(0.996264)" xlink:href="#CMR17-48"/>
      </g>
     </g>
    </g>
    <g id="text_14">
     <!-- Population -->
     <g transform="translate(19.756145 198.258522)rotate(-90)scale(0.1 -0.1)">
      <defs>
       <path d="M 19.796875 31.90625 
L 35.796875 31.90625 
C 48.703125 31.90625 58.09375 40.28125 58.09375 49.75 
C 58.09375 59.234375 48.90625 68 35.796875 68 
L 5.203125 68 
L 5.203125 65.40625 
C 12.09375 65.40625 13.203125 65.40625 13.203125 60.921875 
L 13.203125 6.96875 
C 13.203125 2.5 12.09375 2.5 5.203125 2.5 
L 5.203125 0 
C 8.09375 0 13.40625 0 16.5 0 
C 19.59375 0 24.90625 0 27.796875 0 
L 27.796875 2.5 
C 20.90625 2.5 19.796875 2.5 19.796875 6.96875 
z
M 19.59375 34 
L 19.59375 61.53125 
C 19.59375 64.921875 19.796875 65.40625 23.796875 65.40625 
L 33.90625 65.40625 
C 46.796875 65.40625 50.5 58.03125 50.5 49.75 
C 50.5 40.6875 46.09375 34 33.90625 34 
z
" id="CMR17-80"/>
       <path d="M 22 -16.609375 
C 15.59375 -16.609375 15.203125 -16.203125 15.203125 -12.328125 
L 15.203125 6.28125 
C 18.09375 2.09375 22.296875 -0.59375 27.59375 -0.59375 
C 37.59375 -0.59375 47.703125 8.171875 47.703125 21.6875 
C 47.703125 34.234375 39 43.78125 28.703125 43.78125 
C 22.703125 43.78125 17.796875 40.5 15 36.53125 
L 15 43.78125 
L 3.09375 42.6875 
L 3.09375 40.109375 
C 9 40.109375 9.90625 39.5 9.90625 34.734375 
L 9.90625 -12.328125 
C 9.90625 -16.109375 9.5 -16.609375 3.09375 -16.609375 
L 3.09375 -19.1875 
C 5.5 -19 9.90625 -19 12.5 -19 
C 15.09375 -19 19.59375 -19 22 -19.1875 
z
M 15.203125 31.4375 
C 15.203125 32.84375 15.203125 34.921875 19.09375 38.609375 
C 19.59375 39.015625 23 42 28 42 
C 35.296875 42 41.296875 32.9375 41.296875 21.59375 
C 41.296875 10.25 34.90625 1 27 1 
C 23.40625 1 19.5 2.6875 16.5 7.375 
C 15.203125 9.5625 15.203125 10.15625 15.203125 11.75 
z
" id="CMR17-112"/>
       <path d="M 15.296875 68.6875 
L 3.40625 67.59375 
L 3.40625 65 
C 9.296875 65 10.203125 64.40625 10.203125 59.640625 
L 10.203125 6.65625 
C 10.203125 2.875 9.796875 2.390625 3.40625 2.390625 
L 3.40625 -0.203125 
C 5.796875 0 10.203125 0 12.703125 0 
C 15.296875 0 19.703125 0 22.09375 -0.203125 
L 22.09375 2.390625 
C 15.703125 2.390625 15.296875 2.78125 15.296875 6.65625 
z
" id="CMR17-108"/>
       <path d="M 15.5 61.078125 
C 15.5 63.265625 13.703125 65.15625 11.40625 65.15625 
C 9.203125 65.15625 7.296875 63.375 7.296875 61.078125 
C 7.296875 58.890625 9.09375 57 11.40625 57 
C 13.59375 57 15.5 58.796875 15.5 61.078125 
z
M 3.796875 42.28125 
L 3.796875 39.703125 
C 9.40625 39.703125 10.203125 39.09375 10.203125 34.328125 
L 10.203125 6.671875 
C 10.203125 2.875 9.796875 2.390625 3.40625 2.390625 
L 3.40625 -0.203125 
C 5.796875 0 10.09375 0 12.59375 0 
C 15 0 19.09375 0 21.40625 -0.203125 
L 21.40625 2.390625 
C 15.5 2.390625 15.296875 2.984375 15.296875 6.5625 
L 15.296875 43.375 
z
" id="CMR17-105"/>
       <path d="M 41.5 30.203125 
C 41.5 35.296875 40.5 43.59375 28.703125 43.59375 
C 20.796875 43.59375 16.703125 37.5 15.203125 33.5 
L 15.09375 33.5 
L 15.09375 43.59375 
L 3.296875 42.5 
L 3.296875 39.90625 
C 9.203125 39.90625 10.09375 39.296875 10.09375 34.5 
L 10.09375 6.6875 
C 10.09375 2.875 9.703125 2.390625 3.296875 2.390625 
L 3.296875 -0.203125 
C 5.703125 0 10.09375 0 12.703125 0 
C 15.296875 0 19.796875 0 22.203125 -0.203125 
L 22.203125 2.390625 
C 15.796875 2.390625 15.40625 2.78125 15.40625 6.6875 
L 15.40625 25.90625 
C 15.40625 35.109375 21 42 28 42 
C 35.40625 42 36.203125 35.40625 36.203125 30.59375 
L 36.203125 6.6875 
C 36.203125 2.875 35.796875 2.390625 29.40625 2.390625 
L 29.40625 -0.203125 
C 31.796875 0 36.203125 0 38.796875 0 
C 41.40625 0 45.90625 0 48.296875 -0.203125 
L 48.296875 2.390625 
C 41.90625 2.390625 41.5 2.78125 41.5 6.6875 
z
" id="CMR17-110"/>
      </defs>
      <use transform="scale(0.996264)" xlink:href="#CMR17-80"/>
      <use transform="translate(59.983847 0)scale(0.996264)" xlink:href="#CMR17-111"/>
      <use transform="translate(105.674324 0)scale(0.996264)" xlink:href="#CMR17-112"/>
      <use transform="translate(156.569693 0)scale(0.996264)" xlink:href="#CMR17-117"/>
      <use transform="translate(207.465063 0)scale(0.996264)" xlink:href="#CMR17-108"/>
      <use transform="translate(232.336122 0)scale(0.996264)" xlink:href="#CMR17-97"/>
      <use transform="translate(278.026599 0)scale(0.996264)" xlink:href="#CMR17-116"/>
      <use transform="translate(313.307367 0)scale(0.996264)" xlink:href="#CMR17-105"/>
      <use transform="translate(338.178425 0)scale(0.996264)" xlink:href="#CMR17-111"/>
      <use transform="translate(383.868902 0)scale(0.996264)" xlink:href="#CMR17-110"/>
     </g>
    </g>
   </g>
   <g id="line2d_13">
    <path clip-path="url(#p93ac695a6d)" d="M 64.978512 295.064907 
L 83.097866 294.616091 
L 94.84675 294.095419 
L 104.537735 293.449655 
L 112.851321 292.677323 
L 120.230243 291.771979 
L 126.953261 290.726231 
L 133.25814 289.522673 
L 139.325254 288.139043 
L 145.359573 286.534144 
L 151.648055 284.629058 
L 158.985983 282.162714 
L 175.982101 276.351355 
L 180.688213 275.048982 
L 184.730223 274.156078 
L 188.444281 273.561643 
L 191.977965 273.223352 
L 195.413263 273.122014 
L 198.815766 273.248057 
L 202.267462 273.602016 
L 205.858537 274.197453 
L 209.720173 275.068414 
L 212.54876 275.835408 
L 212.54876 275.835408 
" style="fill:none;stroke:#1f77b4;stroke-linecap:square;stroke-width:1.5;"/>
   </g>
   <g id="line2d_14">
    <path clip-path="url(#p93ac695a6d)" d="M 64.978512 294.93083 
L 70.988235 294.46514 
L 75.005648 293.943069 
L 78.719706 293.225153 
L 81.654877 292.422728 
L 84.229301 291.499166 
L 86.557761 290.426982 
L 88.697648 289.200378 
L 90.681759 287.805902 
L 92.567483 286.208553 
L 94.37122 284.387883 
L 96.117565 282.306534 
L 97.839313 279.903334 
L 99.536465 277.146787 
L 101.233617 273.958034 
L 102.947167 270.254261 
L 104.685313 265.956576 
L 106.480851 260.907931 
L 108.358377 254.945407 
L 110.375282 247.773556 
L 112.646351 238.840797 
L 115.679908 225.91497 
L 119.959683 207.750827 
L 121.771618 201.05429 
L 123.190011 196.614102 
L 124.370638 193.606793 
L 125.370892 191.627654 
L 126.231767 190.383115 
L 126.977858 189.668982 
L 127.633762 189.331125 
L 128.232274 189.264412 
L 128.814389 189.422608 
L 129.4293 189.828753 
L 130.1098 190.561887 
L 130.872289 191.729715 
L 131.741362 193.490057 
L 132.741616 196.046562 
L 133.905846 199.668115 
L 135.291443 204.746903 
L 137.037788 212.050538 
L 139.726996 224.387341 
L 143.900186 243.422713 
L 146.138459 252.557701 
L 148.097973 259.653628 
L 149.918107 265.437673 
L 151.664452 270.265146 
L 153.353406 274.297618 
L 155.017763 277.709468 
L 156.673921 280.606533 
L 158.330079 283.064046 
L 160.010833 285.166077 
L 161.732582 286.96697 
L 163.519921 288.515919 
L 165.389248 289.843185 
L 167.389756 290.990234 
L 169.562438 291.977041 
L 171.964687 292.820282 
L 174.68669 293.534946 
L 177.851428 294.129298 
L 181.655672 294.609508 
L 186.451972 294.980607 
L 192.953622 295.2463 
L 202.956161 295.41021 
L 212.54876 295.461533 
L 212.54876 295.461533 
" style="fill:none;stroke:#ff7f0e;stroke-linecap:square;stroke-width:1.5;"/>
   </g>
   <g id="line2d_15">
    <path clip-path="url(#p93ac695a6d)" d="M 64.978512 294.796352 
L 68.815552 294.298615 
L 72.259049 293.491637 
L 74.120177 292.83892 
L 76.178077 291.871004 
L 77.891626 290.834804 
L 79.383809 289.666215 
L 80.884189 288.203787 
L 82.310781 286.504392 
L 83.630788 284.582563 
L 84.934398 282.281572 
L 86.246206 279.504784 
L 87.541617 276.232661 
L 88.82063 272.382362 
L 90.107842 267.78251 
L 91.419651 262.249583 
L 92.756056 255.623736 
L 94.117057 247.722004 
L 95.53545 238.135299 
L 97.035831 226.426932 
L 98.667392 211.882422 
L 100.577713 192.742179 
L 106.398863 132.779395 
L 107.505701 124.487453 
L 108.391172 119.402698 
L 109.112667 116.444957 
L 109.694782 114.905735 
L 110.145716 114.259925 
L 110.498264 114.096116 
L 110.80162 114.197858 
L 111.137771 114.574029 
L 111.547711 115.407074 
L 112.047838 116.974717 
L 112.654549 119.669028 
L 113.384243 124.002642 
L 114.261515 130.652349 
L 115.343757 140.690964 
L 116.770348 156.191952 
L 119.754713 191.832613 
L 121.919196 216.125299 
L 123.567156 232.212849 
L 125.04294 244.527048 
L 126.428538 254.288038 
L 127.756744 262.116303 
L 129.043956 268.421895 
L 130.306571 273.535844 
L 131.560988 277.714956 
L 132.807206 281.113768 
L 134.053424 283.884792 
L 135.31604 286.162041 
L 136.603252 288.033024 
L 137.931458 289.57646 
L 139.325254 290.857033 
L 140.809238 291.918913 
L 142.424402 292.800816 
L 144.236337 293.533826 
L 146.327032 294.134665 
L 148.835865 294.616689 
L 151.992404 294.986661 
L 156.272179 295.250354 
L 162.880414 295.412384 
L 176.646204 295.480818 
L 212.54876 295.487981 
L 212.54876 295.487981 
" style="fill:none;stroke:#2ca02c;stroke-dasharray:5.55,2.4;stroke-dashoffset:0;stroke-width:1.5;"/>
   </g>
   <g id="line2d_16">
    <path clip-path="url(#p93ac695a6d)" d="M 64.978512 294.661473 
L 67.979274 294.117796 
L 69.733818 293.520852 
L 71.947495 292.560537 
L 73.259303 291.751099 
L 74.587509 290.653473 
L 76.014101 289.182809 
L 77.25212 287.59292 
L 78.358958 285.798514 
L 79.473995 283.551823 
L 80.638225 280.691972 
L 81.786058 277.274774 
L 82.884697 273.292126 
L 83.983337 268.442719 
L 85.114772 262.403992 
L 86.279002 254.944258 
L 87.45143 245.947284 
L 88.640257 235.042076 
L 89.878276 221.559181 
L 91.206482 204.56889 
L 92.65767 183.030675 
L 94.37122 154.075164 
L 98.659193 79.869259 
L 99.667646 67.065246 
L 100.446532 59.764247 
L 101.061443 55.893066 
L 101.528774 54.175207 
L 101.864925 53.624729 
L 102.094492 53.585638 
L 102.307661 53.796502 
L 102.58642 54.432682 
L 102.955366 55.90133 
L 103.422698 58.772218 
L 104.004813 63.872307 
L 104.718109 72.261188 
L 105.603579 85.513492 
L 106.776008 106.699158 
L 109.014281 152.200648 
L 111.031187 191.087084 
L 112.474176 214.756991 
L 113.761388 232.35732 
L 114.966612 245.89408 
L 116.114444 256.384487 
L 117.229481 264.622219 
L 118.328121 271.143725 
L 119.410363 276.28056 
L 120.484406 280.342426 
L 121.558449 283.566609 
L 122.640691 286.133974 
L 123.739331 288.182429 
L 124.862567 289.817622 
L 126.034995 291.137318 
L 127.273015 292.199757 
L 128.617618 293.062013 
L 130.126198 293.762971 
L 131.880742 294.327101 
L 134.004231 294.768389 
L 136.742632 295.098781 
L 140.604268 295.323621 
L 147.064924 295.448619 
L 164.348 295.487064 
L 212.54876 295.488 
L 212.54876 295.488 
" style="fill:none;stroke:#d62728;stroke-dasharray:9.6,2.4,1.5,2.4;stroke-dashoffset:0;stroke-width:1.5;"/>
   </g>
   <g id="patch_3">
    <path d="M 57.6 307.584 
L 57.6 41.472 
" style="fill:none;stroke:#000000;stroke-linecap:square;stroke-linejoin:miter;stroke-width:0.8;"/>
   </g>
   <g id="patch_4">
    <path d="M 219.927273 307.584 
L 219.927273 41.472 
" style="fill:none;stroke:#000000;stroke-linecap:square;stroke-linejoin:miter;stroke-width:0.8;"/>
   </g>
   <g id="patch_5">
    <path d="M 57.6 307.584 
L 219.927273 307.584 
" style="fill:none;stroke:#000000;stroke-linecap:square;stroke-linejoin:miter;stroke-width:0.8;"/>
   </g>
   <g id="patch_6">
    <path d="M 57.6 41.472 
L 219.927273 41.472 
" style="fill:none;stroke:#000000;stroke-linecap:square;stroke-linejoin:miter;stroke-width:0.8;"/>
   </g>
   <g id="legend_1">
    <g id="patch_7">
     <path d="M 149.966897 109.82839 
L 212.927273 109.82839 
Q 214.927273 109.82839 214.927273 107.82839 
L 214.927273 48.472 
Q 214.927273 46.472 212.927273 46.472 
L 149.966897 46.472 
Q 147.966897 46.472 147.966897 48.472 
L 147.966897 107.82839 
Q 147.966897 109.82839 149.966897 109.82839 
z
" style="fill:#ffffff;opacity:0.8;stroke:#cccccc;stroke-linejoin:miter;"/>
    </g>
    <g id="line2d_17">
     <path d="M 151.966897 54.570438 
L 171.966897 54.570438 
" style="fill:none;stroke:#1f77b4;stroke-linecap:square;stroke-width:1.5;"/>
    </g>
    <g id="line2d_18"/>
    <g id="text_15">
     <!-- \(\langle k \rangle\)=4 -->
     <g transform="translate(179.966897 58.070438)scale(0.1 -0.1)">
      <defs>
       <path d="M 32.796875 71.203125 
C 33.296875 72.296875 33.296875 72.5 33.296875 73 
C 33.296875 74.09375 32.40625 75 31.296875 75 
C 30.40625 75 29.703125 74.5 29 72.703125 
L 11.5 26.796875 
C 11.296875 26.203125 11 25.59375 11 25 
C 11 24.703125 11 24.5 11.5 23.296875 
L 29 -22.59375 
C 29.40625 -23.703125 29.90625 -25 31.296875 -25 
C 32.40625 -25 33.296875 -24.09375 33.296875 -23 
C 33.296875 -22.703125 33.296875 -22.5 32.796875 -21.40625 
L 15.09375 25 
z
" id="CMSY10-104"/>
       <path d="M 28.09375 66.515625 
C 28.203125 66.921875 28.40625 67.515625 28.40625 68 
C 28.40625 69 27.40625 69 27.203125 69 
C 27.09375 69 23.5 68.640625 21.703125 68.390625 
C 20 68.390625 18.5 68.09375 16.703125 68.09375 
C 14.296875 67.890625 13.59375 67.796875 13.59375 66 
C 13.59375 65 14.59375 65 15.59375 65 
C 20.703125 65 20.703125 64.109375 20.703125 63.125 
C 20.703125 62.734375 20.703125 62.53125 20.203125 60.75 
L 5.90625 3.875 
C 5.5 2.375 5.5 2.1875 5.5 1.578125 
C 5.5 -0.59375 7.203125 -1 8.203125 -1 
C 11 -1 11.59375 1.203125 12.40625 4.296875 
L 17.09375 22.953125 
C 24.296875 22.15625 28.59375 19.15625 28.59375 14.375 
C 28.59375 13.765625 28.59375 13.375 28.296875 11.875 
C 27.90625 10.375 27.90625 9.1875 27.90625 8.6875 
C 27.90625 2.890625 31.703125 -1 36.796875 -1 
C 41.40625 -1 43.796875 3.1875 44.59375 4.59375 
C 46.703125 8.28125 48 13.875 48 14.265625 
C 48 14.765625 47.59375 15.171875 47 15.171875 
C 46.09375 15.171875 46 14.765625 45.59375 13.171875 
C 44.203125 7.984375 42.09375 1 37 1 
C 35 1 33.703125 2 33.703125 5.78125 
C 33.703125 7.6875 34.09375 9.875 34.5 11.375 
C 34.90625 13.171875 34.90625 13.265625 34.90625 14.46875 
C 34.90625 20.359375 29.59375 23.65625 20.40625 24.84375 
C 24 27.046875 27.59375 30.9375 29 32.4375 
C 34.703125 38.8125 38.59375 42.015625 43.203125 42.015625 
C 45.5 42.015625 46.09375 41.40625 46.796875 40.8125 
C 43.09375 40.40625 41.703125 37.8125 41.703125 35.828125 
C 41.703125 33.421875 43.59375 32.625 45 32.625 
C 47.703125 32.625 50.09375 34.921875 50.09375 38.125 
C 50.09375 41.015625 47.796875 44 43.296875 44 
C 37.796875 44 33.296875 40.109375 26.203125 32.125 
C 25.203125 30.9375 21.5 27.140625 17.796875 25.75 
z
" id="CMMI12-107"/>
       <path d="M 27.296875 23.296875 
C 27.796875 24.5 27.796875 24.703125 27.796875 25 
C 27.796875 25.296875 27.796875 25.5 27.296875 26.703125 
L 9.796875 72.703125 
C 9.203125 74.40625 8.59375 75 7.5 75 
C 6.40625 75 5.5 74.09375 5.5 73 
C 5.5 72.703125 5.5 72.5 6 71.40625 
L 23.703125 25 
L 6 -21.203125 
C 5.5 -22.296875 5.5 -22.5 5.5 -23 
C 5.5 -24.09375 6.40625 -25 7.5 -25 
C 8.796875 -25 9.203125 -24 9.59375 -23 
z
" id="CMSY10-105"/>
       <path d="M 64.296875 31.515625 
C 65.796875 31.515625 67.296875 31.515625 67.296875 33.203125 
C 67.296875 35 65.59375 35 63.90625 35 
L 8 35 
C 6.296875 35 4.59375 35 4.59375 33.203125 
C 4.59375 31.515625 6.09375 31.515625 7.59375 31.515625 
z
M 63.90625 14 
C 65.59375 14 67.296875 14 67.296875 15.796875 
C 67.296875 17.484375 65.796875 17.484375 64.296875 17.484375 
L 7.59375 17.484375 
C 6.09375 17.484375 4.59375 17.484375 4.59375 15.796875 
C 4.59375 14 6.296875 14 8 14 
z
" id="CMR17-61"/>
      </defs>
      <use transform="scale(0.996264)" xlink:href="#CMSY10-104"/>
      <use transform="translate(38.743734 0)scale(0.996264)" xlink:href="#CMMI12-107"/>
      <use transform="translate(92.822935 0)scale(0.996264)" xlink:href="#CMSY10-105"/>
      <use transform="translate(131.566668 0)scale(0.996264)" xlink:href="#CMR17-61"/>
      <use transform="translate(203.281457 0)scale(0.996264)" xlink:href="#CMR17-52"/>
     </g>
    </g>
    <g id="line2d_19">
     <path d="M 151.966897 69.659535 
L 171.966897 69.659535 
" style="fill:none;stroke:#ff7f0e;stroke-linecap:square;stroke-width:1.5;"/>
    </g>
    <g id="line2d_20"/>
    <g id="text_16">
     <!-- \(\langle k \rangle\)=6 -->
     <g transform="translate(179.966897 73.159535)scale(0.1 -0.1)">
      <use transform="scale(0.996264)" xlink:href="#CMSY10-104"/>
      <use transform="translate(38.743734 0)scale(0.996264)" xlink:href="#CMMI12-107"/>
      <use transform="translate(92.822935 0)scale(0.996264)" xlink:href="#CMSY10-105"/>
      <use transform="translate(131.566668 0)scale(0.996264)" xlink:href="#CMR17-61"/>
      <use transform="translate(203.281457 0)scale(0.996264)" xlink:href="#CMR17-54"/>
     </g>
    </g>
    <g id="line2d_21">
     <path d="M 151.966897 84.748633 
L 171.966897 84.748633 
" style="fill:none;stroke:#2ca02c;stroke-dasharray:5.55,2.4;stroke-dashoffset:0;stroke-width:1.5;"/>
    </g>
    <g id="line2d_22"/>
    <g id="text_17">
     <!-- \(\langle k \rangle\)=8 -->
     <g transform="translate(179.966897 88.248633)scale(0.1 -0.1)">
      <use transform="scale(0.996264)" xlink:href="#CMSY10-104"/>
      <use transform="translate(38.743734 0)scale(0.996264)" xlink:href="#CMMI12-107"/>
      <use transform="translate(92.822935 0)scale(0.996264)" xlink:href="#CMSY10-105"/>
      <use transform="translate(131.566668 0)scale(0.996264)" xlink:href="#CMR17-61"/>
      <use transform="translate(203.281457 0)scale(0.996264)" xlink:href="#CMR17-56"/>
     </g>
    </g>
    <g id="line2d_23">
     <path d="M 151.966897 99.83773 
L 171.966897 99.83773 
" style="fill:none;stroke:#d62728;stroke-dasharray:9.6,2.4,1.5,2.4;stroke-dashoffset:0;stroke-width:1.5;"/>
    </g>
    <g id="line2d_24"/>
    <g id="text_18">
     <!-- \(\langle k \rangle\)=10 -->
     <g transform="translate(179.966897 103.33773)scale(0.1 -0.1)">
      <use transform="scale(0.996264)" xlink:href="#CMSY10-104"/>
      <use transform="translate(38.743734 0)scale(0.996264)" xlink:href="#CMMI12-107"/>
      <use transform="translate(92.822935 0)scale(0.996264)" xlink:href="#CMSY10-105"/>
      <use transform="translate(131.566668 0)scale(0.996264)" xlink:href="#CMR17-61"/>
      <use transform="translate(203.281457 0)scale(0.996264)" xlink:href="#CMR17-49"/>
      <use transform="translate(248.971934 0)scale(0.996264)" xlink:href="#CMR17-48"/>
     </g>
    </g>
   </g>
  </g>
  <g id="axes_2">
   <g id="patch_8">
    <path d="M 252.392727 307.584 
L 414.72 307.584 
L 414.72 41.472 
L 252.392727 41.472 
z
" style="fill:#ffffff;"/>
   </g>
   <g id="matplotlib.axis_3">
    <g id="xtick_5">
     <g id="line2d_25">
      <g>
       <use style="stroke:#000000;stroke-width:0.8;" x="254.824751" xlink:href="#m06e4ee265c" y="307.584"/>
      </g>
     </g>
     <g id="text_19">
      <!-- $\mathdefault{0}$ -->
      <g transform="translate(252.334083 321.502498)scale(0.1 -0.1)">
       <use transform="scale(0.996264)" xlink:href="#CMR17-48"/>
      </g>
     </g>
    </g>
    <g id="xtick_6">
     <g id="line2d_26">
      <g>
       <use style="stroke:#000000;stroke-width:0.8;" x="296.045491" xlink:href="#m06e4ee265c" y="307.584"/>
      </g>
     </g>
     <g id="text_20">
      <!-- $\mathdefault{50}$ -->
      <g transform="translate(291.064155 321.502498)scale(0.1 -0.1)">
       <use transform="scale(0.996264)" xlink:href="#CMR17-53"/>
       <use transform="translate(45.690477 0)scale(0.996264)" xlink:href="#CMR17-48"/>
      </g>
     </g>
    </g>
    <g id="xtick_7">
     <g id="line2d_27">
      <g>
       <use style="stroke:#000000;stroke-width:0.8;" x="337.26623" xlink:href="#m06e4ee265c" y="307.584"/>
      </g>
     </g>
     <g id="text_21">
      <!-- $\mathdefault{100}$ -->
      <g transform="translate(329.794227 321.502498)scale(0.1 -0.1)">
       <use transform="scale(0.996264)" xlink:href="#CMR17-49"/>
       <use transform="translate(45.690477 0)scale(0.996264)" xlink:href="#CMR17-48"/>
       <use transform="translate(91.380954 0)scale(0.996264)" xlink:href="#CMR17-48"/>
      </g>
     </g>
    </g>
    <g id="xtick_8">
     <g id="line2d_28">
      <g>
       <use style="stroke:#000000;stroke-width:0.8;" x="378.48697" xlink:href="#m06e4ee265c" y="307.584"/>
      </g>
     </g>
     <g id="text_22">
      <!-- $\mathdefault{150}$ -->
      <g transform="translate(371.014967 321.502498)scale(0.1 -0.1)">
       <use transform="scale(0.996264)" xlink:href="#CMR17-49"/>
       <use transform="translate(45.690477 0)scale(0.996264)" xlink:href="#CMR17-53"/>
       <use transform="translate(91.380954 0)scale(0.996264)" xlink:href="#CMR17-48"/>
      </g>
     </g>
    </g>
    <g id="text_23">
     <!-- Days from outbreak -->
     <g transform="translate(290.121922 334.358175)scale(0.1 -0.1)">
      <use transform="scale(0.996264)" xlink:href="#CMR17-68"/>
      <use transform="translate(70.393556 0)scale(0.996264)" xlink:href="#CMR17-97"/>
      <use transform="translate(113.481579 0)scale(0.996264)" xlink:href="#CMR17-121"/>
      <use transform="translate(161.774495 0)scale(0.996264)" xlink:href="#CMR17-115"/>
      <use transform="translate(227.651799 0)scale(0.996264)" xlink:href="#CMR17-102"/>
      <use transform="translate(255.125311 0)scale(0.996264)" xlink:href="#CMR17-114"/>
      <use transform="translate(290.406079 0)scale(0.996264)" xlink:href="#CMR17-111"/>
      <use transform="translate(336.096556 0)scale(0.996264)" xlink:href="#CMR17-109"/>
      <use transform="translate(443.092112 0)scale(0.996264)" xlink:href="#CMR17-111"/>
      <use transform="translate(488.78259 0)scale(0.996264)" xlink:href="#CMR17-117"/>
      <use transform="translate(539.677959 0)scale(0.996264)" xlink:href="#CMR17-116"/>
      <use transform="translate(574.958727 0)scale(0.996264)" xlink:href="#CMR17-98"/>
      <use transform="translate(625.854097 0)scale(0.996264)" xlink:href="#CMR17-114"/>
      <use transform="translate(661.134865 0)scale(0.996264)" xlink:href="#CMR17-101"/>
      <use transform="translate(701.620525 0)scale(0.996264)" xlink:href="#CMR17-97"/>
      <use transform="translate(747.311002 0)scale(0.996264)" xlink:href="#CMR17-107"/>
     </g>
    </g>
   </g>
   <g id="matplotlib.axis_4">
    <g id="ytick_9">
     <g id="line2d_29">
      <g>
       <use style="stroke:#000000;stroke-width:0.8;" x="252.392727" xlink:href="#m7aa97cc3ef" y="295.488"/>
      </g>
     </g>
     <g id="text_24">
      <!-- $\mathdefault{0}$ -->
      <g transform="translate(240.411392 298.947249)scale(0.1 -0.1)">
       <use transform="scale(0.996264)" xlink:href="#CMR17-48"/>
      </g>
     </g>
    </g>
    <g id="ytick_10">
     <g id="line2d_30">
      <g>
       <use style="stroke:#000000;stroke-width:0.8;" x="252.392727" xlink:href="#m7aa97cc3ef" y="248.426032"/>
      </g>
     </g>
     <g id="text_25">
      <!-- $\mathdefault{5000}$ -->
      <g transform="translate(225.467386 251.885281)scale(0.1 -0.1)">
       <use transform="scale(0.996264)" xlink:href="#CMR17-53"/>
       <use transform="translate(45.690477 0)scale(0.996264)" xlink:href="#CMR17-48"/>
       <use transform="translate(91.380954 0)scale(0.996264)" xlink:href="#CMR17-48"/>
       <use transform="translate(137.071431 0)scale(0.996264)" xlink:href="#CMR17-48"/>
      </g>
     </g>
    </g>
    <g id="ytick_11">
     <g id="line2d_31">
      <g>
       <use style="stroke:#000000;stroke-width:0.8;" x="252.392727" xlink:href="#m7aa97cc3ef" y="201.364063"/>
      </g>
     </g>
     <g id="text_26">
      <!-- $\mathdefault{10000}$ -->
      <g transform="translate(220.486051 204.823312)scale(0.1 -0.1)">
       <use transform="scale(0.996264)" xlink:href="#CMR17-49"/>
       <use transform="translate(45.690477 0)scale(0.996264)" xlink:href="#CMR17-48"/>
       <use transform="translate(91.380954 0)scale(0.996264)" xlink:href="#CMR17-48"/>
       <use transform="translate(137.071431 0)scale(0.996264)" xlink:href="#CMR17-48"/>
       <use transform="translate(182.761908 0)scale(0.996264)" xlink:href="#CMR17-48"/>
      </g>
     </g>
    </g>
    <g id="ytick_12">
     <g id="line2d_32">
      <g>
       <use style="stroke:#000000;stroke-width:0.8;" x="252.392727" xlink:href="#m7aa97cc3ef" y="154.302095"/>
      </g>
     </g>
     <g id="text_27">
      <!-- $\mathdefault{15000}$ -->
      <g transform="translate(220.486051 157.761344)scale(0.1 -0.1)">
       <use transform="scale(0.996264)" xlink:href="#CMR17-49"/>
       <use transform="translate(45.690477 0)scale(0.996264)" xlink:href="#CMR17-53"/>
       <use transform="translate(91.380954 0)scale(0.996264)" xlink:href="#CMR17-48"/>
       <use transform="translate(137.071431 0)scale(0.996264)" xlink:href="#CMR17-48"/>
       <use transform="translate(182.761908 0)scale(0.996264)" xlink:href="#CMR17-48"/>
      </g>
     </g>
    </g>
    <g id="ytick_13">
     <g id="line2d_33">
      <g>
       <use style="stroke:#000000;stroke-width:0.8;" x="252.392727" xlink:href="#m7aa97cc3ef" y="107.240126"/>
      </g>
     </g>
     <g id="text_28">
      <!-- $\mathdefault{20000}$ -->
      <g transform="translate(220.486051 110.699375)scale(0.1 -0.1)">
       <use transform="scale(0.996264)" xlink:href="#CMR17-50"/>
       <use transform="translate(45.690477 0)scale(0.996264)" xlink:href="#CMR17-48"/>
       <use transform="translate(91.380954 0)scale(0.996264)" xlink:href="#CMR17-48"/>
       <use transform="translate(137.071431 0)scale(0.996264)" xlink:href="#CMR17-48"/>
       <use transform="translate(182.761908 0)scale(0.996264)" xlink:href="#CMR17-48"/>
      </g>
     </g>
    </g>
    <g id="ytick_14">
     <g id="line2d_34">
      <g>
       <use style="stroke:#000000;stroke-width:0.8;" x="252.392727" xlink:href="#m7aa97cc3ef" y="60.178158"/>
      </g>
     </g>
     <g id="text_29">
      <!-- $\mathdefault{25000}$ -->
      <g transform="translate(220.486051 63.637407)scale(0.1 -0.1)">
       <use transform="scale(0.996264)" xlink:href="#CMR17-50"/>
       <use transform="translate(45.690477 0)scale(0.996264)" xlink:href="#CMR17-53"/>
       <use transform="translate(91.380954 0)scale(0.996264)" xlink:href="#CMR17-48"/>
       <use transform="translate(137.071431 0)scale(0.996264)" xlink:href="#CMR17-48"/>
       <use transform="translate(182.761908 0)scale(0.996264)" xlink:href="#CMR17-48"/>
      </g>
     </g>
    </g>
    <g id="text_30">
     <!-- Population -->
     <g transform="translate(214.548873 198.258522)rotate(-90)scale(0.1 -0.1)">
      <use transform="scale(0.996264)" xlink:href="#CMR17-80"/>
      <use transform="translate(59.983847 0)scale(0.996264)" xlink:href="#CMR17-111"/>
      <use transform="translate(105.674324 0)scale(0.996264)" xlink:href="#CMR17-112"/>
      <use transform="translate(156.569693 0)scale(0.996264)" xlink:href="#CMR17-117"/>
      <use transform="translate(207.465063 0)scale(0.996264)" xlink:href="#CMR17-108"/>
      <use transform="translate(232.336122 0)scale(0.996264)" xlink:href="#CMR17-97"/>
      <use transform="translate(278.026599 0)scale(0.996264)" xlink:href="#CMR17-116"/>
      <use transform="translate(313.307367 0)scale(0.996264)" xlink:href="#CMR17-105"/>
      <use transform="translate(338.178425 0)scale(0.996264)" xlink:href="#CMR17-111"/>
      <use transform="translate(383.868902 0)scale(0.996264)" xlink:href="#CMR17-110"/>
     </g>
    </g>
   </g>
   <g id="line2d_35">
    <path clip-path="url(#p6ac243bfa7)" d="M 259.77124 295.196317 
L 267.691283 294.840706 
L 272.741745 294.393904 
L 276.759159 293.831359 
L 280.137065 293.147052 
L 283.113231 292.319675 
L 285.712251 291.369039 
L 288.089904 290.264039 
L 290.278984 289.001696 
L 292.345082 287.552683 
L 294.320994 285.893714 
L 296.239514 283.990017 
L 298.133437 281.794248 
L 300.035559 279.242776 
L 301.978675 276.255837 
L 304.011978 272.710604 
L 306.217456 268.401967 
L 308.832874 262.775501 
L 315.875646 247.322646 
L 317.49081 244.48364 
L 318.819016 242.574182 
L 319.95865 241.304727 
L 320.958903 240.506177 
L 321.860772 240.057981 
L 322.69705 239.883051 
L 323.508731 239.939705 
L 324.328611 240.224418 
L 325.189486 240.766277 
L 326.124149 241.627421 
L 327.165397 242.902857 
L 328.354223 244.729555 
L 329.739821 247.287511 
L 331.453371 250.946955 
L 333.929409 256.819718 
L 338.98807 268.891701 
L 341.25094 273.651325 
L 343.267845 277.389426 
L 345.169968 280.456105 
L 347.014698 283.015464 
L 348.834832 285.167527 
L 350.671364 286.999698 
L 352.54889 288.562323 
L 354.508404 289.904811 
L 356.582701 291.055708 
L 358.820974 292.041329 
L 361.288813 292.881569 
L 364.076406 293.590549 
L 367.306735 294.176554 
L 371.192967 294.647926 
L 376.112249 295.010044 
L 382.818869 295.266098 
L 393.305138 295.42069 
L 407.341488 295.474144 
L 407.341488 295.474144 
" style="fill:none;stroke:#1f77b4;stroke-linecap:square;stroke-width:1.5;"/>
   </g>
   <g id="line2d_36">
    <path clip-path="url(#p6ac243bfa7)" d="M 259.77124 294.984486 
L 262.772001 294.577012 
L 264.706919 294.044981 
L 266.740222 293.292326 
L 268.027434 292.57944 
L 269.314646 291.59765 
L 270.651051 290.298601 
L 271.815281 288.861129 
L 272.84833 287.223182 
L 273.881379 285.150925 
L 274.963621 282.462101 
L 276.054062 279.141081 
L 277.103508 275.213574 
L 278.136557 270.455984 
L 279.202402 264.461885 
L 280.333837 256.775707 
L 281.514464 247.166433 
L 282.744285 235.250141 
L 284.105286 219.773622 
L 285.933619 196.162395 
L 288.508043 163.164947 
L 289.524694 152.970245 
L 290.278984 147.444115 
L 290.861099 144.651548 
L 291.295636 143.497191 
L 291.60719 143.185076 
L 291.828558 143.231084 
L 292.074522 143.545625 
L 292.394275 144.369613 
L 292.804215 146.105604 
L 293.32074 149.346247 
L 293.968445 154.953372 
L 294.788326 164.170451 
L 295.911562 179.587256 
L 300.174939 240.693399 
L 301.388362 253.667994 
L 302.503399 263.317372 
L 303.569243 270.690616 
L 304.602292 276.350506 
L 305.618944 280.730432 
L 306.627397 284.12499 
L 307.635849 286.761686 
L 308.652501 288.813648 
L 309.68555 290.411976 
L 310.759593 291.6728 
L 311.899227 292.671655 
L 313.145445 293.46771 
L 314.555639 294.100583 
L 316.219996 294.59704 
L 318.294293 294.974196 
L 321.090084 295.242481 
L 325.378058 295.408185 
L 334.158976 295.47971 
L 390.673322 295.488 
L 407.341488 295.488 
L 407.341488 295.488 
" style="fill:none;stroke:#ff7f0e;stroke-linecap:square;stroke-width:1.5;"/>
   </g>
   <g id="line2d_37">
    <path clip-path="url(#p6ac243bfa7)" d="M 259.77124 294.770776 
L 261.747151 294.31596 
L 262.91958 293.80776 
L 264.124804 293.023185 
L 265.526799 291.862176 
L 266.510655 290.761557 
L 267.346933 289.486599 
L 268.175012 287.797331 
L 269.101477 285.37296 
L 270.085333 282.154853 
L 271.011798 278.344786 
L 271.864473 273.870622 
L 272.700751 268.24621 
L 273.594421 260.631854 
L 274.56188 250.380399 
L 275.578531 237.155292 
L 276.603381 220.835712 
L 277.685623 199.857433 
L 279.054823 168.540807 
L 281.481669 112.664624 
L 282.301549 98.930569 
L 282.891863 92.316496 
L 283.318201 89.643768 
L 283.605159 88.941286 
L 283.760936 88.945045 
L 283.924912 89.246707 
L 284.162677 90.2297 
L 284.498828 92.715166 
L 284.941564 97.883902 
L 285.507281 107.353715 
L 286.26977 124.242705 
L 287.507789 157.460002 
L 289.450905 208.79694 
L 290.557743 232.125761 
L 291.549799 248.55596 
L 292.484462 260.51671 
L 293.38633 269.347139 
L 294.271801 275.93588 
L 295.149073 280.869519 
L 296.018146 284.549917 
L 296.895418 287.335852 
L 297.780889 289.43271 
L 298.682757 291.015801 
L 299.61742 292.22068 
L 300.617674 293.151767 
L 301.716314 293.870259 
L 302.978929 294.425983 
L 304.512105 294.849317 
L 306.504414 295.156632 
L 309.390393 295.358626 
L 314.54744 295.463154 
L 331.863311 295.487871 
L 407.341488 295.488 
L 407.341488 295.488 
" style="fill:none;stroke:#2ca02c;stroke-dasharray:5.55,2.4;stroke-dashoffset:0;stroke-width:1.5;"/>
   </g>
   <g id="line2d_38">
    <path clip-path="url(#p6ac243bfa7)" d="M 259.77124 294.555197 
L 261.247024 294.064393 
L 262.206284 293.502058 
L 263.075357 292.730301 
L 264.092009 291.493043 
L 265.174251 289.846156 
L 266.00233 288.181433 
L 266.740222 286.184665 
L 267.461717 283.558737 
L 268.224205 279.88612 
L 269.093278 274.536141 
L 269.995147 267.545347 
L 270.847822 259.134596 
L 271.651305 248.92443 
L 272.462986 235.619744 
L 273.356656 217.063093 
L 274.414301 190.13821 
L 275.72611 150.642044 
L 278.341528 70.113991 
L 278.94004 59.088319 
L 279.366378 54.720211 
L 279.645137 53.618701 
L 279.75992 53.583831 
L 279.784517 53.608445 
L 279.923896 53.962332 
L 280.145264 55.272268 
L 280.456819 58.647381 
L 280.874958 65.857811 
L 281.432476 79.709878 
L 282.219561 105.448935 
L 285.335106 213.520422 
L 286.26977 235.476373 
L 287.15524 251.277915 
L 288.007916 262.728678 
L 288.852392 271.218241 
L 289.68867 277.485364 
L 290.524948 282.144896 
L 291.361226 285.600741 
L 292.205703 288.181772 
L 293.058378 290.102261 
L 293.93565 291.549717 
L 294.853916 292.647004 
L 295.845971 293.488828 
L 296.952809 294.134626 
L 298.24822 294.62827 
L 299.871583 294.998839 
L 302.077061 295.258626 
L 305.520558 295.416202 
L 312.891282 295.48149 
L 369.782773 295.488 
L 407.341488 295.488 
L 407.341488 295.488 
" style="fill:none;stroke:#d62728;stroke-dasharray:9.6,2.4,1.5,2.4;stroke-dashoffset:0;stroke-width:1.5;"/>
   </g>
   <g id="patch_9">
    <path d="M 252.392727 307.584 
L 252.392727 41.472 
" style="fill:none;stroke:#000000;stroke-linecap:square;stroke-linejoin:miter;stroke-width:0.8;"/>
   </g>
   <g id="patch_10">
    <path d="M 414.72 307.584 
L 414.72 41.472 
" style="fill:none;stroke:#000000;stroke-linecap:square;stroke-linejoin:miter;stroke-width:0.8;"/>
   </g>
   <g id="patch_11">
    <path d="M 252.392727 307.584 
L 414.72 307.584 
" style="fill:none;stroke:#000000;stroke-linecap:square;stroke-linejoin:miter;stroke-width:0.8;"/>
   </g>
   <g id="patch_12">
    <path d="M 252.392727 41.472 
L 414.72 41.472 
" style="fill:none;stroke:#000000;stroke-linecap:square;stroke-linejoin:miter;stroke-width:0.8;"/>
   </g>
   <g id="legend_2">
    <g id="patch_13">
     <path d="M 339.11762 108.041991 
L 407.72 108.041991 
Q 409.72 108.041991 409.72 106.041991 
L 409.72 48.472 
Q 409.72 46.472 407.72 46.472 
L 339.11762 46.472 
Q 337.11762 46.472 337.11762 48.472 
L 337.11762 106.041991 
Q 337.11762 108.041991 339.11762 108.041991 
z
" style="fill:#ffffff;opacity:0.8;stroke:#cccccc;stroke-linejoin:miter;"/>
    </g>
    <g id="line2d_39">
     <path d="M 341.11762 54.570438 
L 361.11762 54.570438 
" style="fill:none;stroke:#1f77b4;stroke-linecap:square;stroke-width:1.5;"/>
    </g>
    <g id="line2d_40"/>
    <g id="text_31">
     <!-- \(\beta\)=1e-06 -->
     <g transform="translate(369.11762 58.070438)scale(0.1 -0.1)">
      <defs>
       <path d="M 56.59375 57.828125 
C 56.59375 63.765625 51.5 70 42.40625 70 
C 29.5 70 21.296875 54.328125 18.703125 44 
L 2.90625 -18.3125 
C 2.703125 -19.109375 3.296875 -19.3125 3.796875 -19.3125 
C 4.5 -19.3125 5 -19.21875 5.09375 -18.71875 
L 12.09375 9.15625 
C 13.09375 3.578125 18.59375 -1 24.5 -1 
C 38.796875 -1 52.296875 10.15625 52.296875 24.984375 
C 52.296875 28.765625 51.40625 32.546875 49.296875 35.734375 
C 48.09375 37.625 46.59375 39.015625 45 40.21875 
C 52.203125 43.984375 56.59375 50 56.59375 57.828125 
z
M 39.203125 40.3125 
C 37.59375 39.71875 36 39.515625 34.09375 39.515625 
C 32.703125 39.515625 31.40625 39.421875 29.59375 40.015625 
C 30.59375 40.71875 32.09375 40.90625 34.203125 40.90625 
C 36 40.90625 37.796875 40.71875 39.203125 40.3125 
z
M 51.40625 58.71875 
C 51.40625 53.28125 48.703125 45.359375 42.203125 41.703125 
C 40.296875 42.46875 37.703125 43 35.5 43 
C 33.40625 43 27.40625 43 27.40625 39.921875 
C 27.40625 37.328125 32.90625 37.328125 34.59375 37.328125 
C 37.203125 37.328125 39.5 38 41.90625 38.8125 
C 45.09375 36.21875 46.5 32.828125 46.5 27.859375 
C 46.5 22.078125 44.90625 17.421875 43 13.140625 
C 39.703125 5.765625 31.90625 1 25 1 
C 17.703125 1 13.90625 6.75 13.90625 13.5 
C 13.90625 14.40625 13.90625 15.703125 14.296875 17.171875 
L 20.796875 43.296875 
C 24.09375 56.296875 32.5 68.015625 42.203125 68.015625 
C 49.40625 68.015625 51.40625 63.0625 51.40625 58.71875 
z
" id="CMMI12-12"/>
       <path d="M 25.5 19 
L 25.5 23.375 
L 0.40625 23.375 
L 0.40625 19 
z
" id="CMR17-45"/>
      </defs>
      <use transform="scale(0.996264)" xlink:href="#CMMI12-12"/>
      <use transform="translate(60.594016 0)scale(0.996264)" xlink:href="#CMR17-61"/>
      <use transform="translate(132.308804 0)scale(0.996264)" xlink:href="#CMR17-49"/>
      <use transform="translate(177.999281 0)scale(0.996264)" xlink:href="#CMR17-101"/>
      <use transform="translate(218.484942 0)scale(0.996264)" xlink:href="#CMR17-45"/>
      <use transform="translate(248.560908 0)scale(0.996264)" xlink:href="#CMR17-48"/>
      <use transform="translate(294.251385 0)scale(0.996264)" xlink:href="#CMR17-54"/>
     </g>
    </g>
    <g id="line2d_41">
     <path d="M 341.11762 69.248563 
L 361.11762 69.248563 
" style="fill:none;stroke:#ff7f0e;stroke-linecap:square;stroke-width:1.5;"/>
    </g>
    <g id="line2d_42"/>
    <g id="text_32">
     <!-- \(\beta\)=2e-06 -->
     <g transform="translate(369.11762 72.748563)scale(0.1 -0.1)">
      <use transform="scale(0.996264)" xlink:href="#CMMI12-12"/>
      <use transform="translate(60.594016 0)scale(0.996264)" xlink:href="#CMR17-61"/>
      <use transform="translate(132.308804 0)scale(0.996264)" xlink:href="#CMR17-50"/>
      <use transform="translate(177.999281 0)scale(0.996264)" xlink:href="#CMR17-101"/>
      <use transform="translate(218.484942 0)scale(0.996264)" xlink:href="#CMR17-45"/>
      <use transform="translate(248.560908 0)scale(0.996264)" xlink:href="#CMR17-48"/>
      <use transform="translate(294.251385 0)scale(0.996264)" xlink:href="#CMR17-54"/>
     </g>
    </g>
    <g id="line2d_43">
     <path d="M 341.11762 83.926688 
L 361.11762 83.926688 
" style="fill:none;stroke:#2ca02c;stroke-dasharray:5.55,2.4;stroke-dashoffset:0;stroke-width:1.5;"/>
    </g>
    <g id="line2d_44"/>
    <g id="text_33">
     <!-- \(\beta\)=3e-06 -->
     <g transform="translate(369.11762 87.426688)scale(0.1 -0.1)">
      <defs>
       <path d="M 22.09375 33.703125 
C 31 33.703125 34.90625 25.96875 34.90625 17.03125 
C 34.90625 5 28.5 0.390625 22.703125 0.390625 
C 17.40625 0.390625 8.796875 3.03125 6.09375 10.828125 
C 6.59375 10.625 7.09375 10.625 7.59375 10.625 
C 10 10.625 11.796875 12.21875 11.796875 14.8125 
C 11.796875 17.703125 9.59375 19 7.59375 19 
C 5.90625 19 3.296875 18.203125 3.296875 14.46875 
C 3.296875 5.234375 12.296875 -2 22.90625 -2 
C 34 -2 42.5 6.71875 42.5 16.953125 
C 42.5 26.671875 34.5 33.703125 25 34.796875 
C 32.59375 36.375 39.90625 43.0625 39.90625 52.015625 
C 39.90625 59.6875 32 65.296875 23 65.296875 
C 13.90625 65.296875 5.90625 59.828125 5.90625 52.015625 
C 5.90625 48.59375 8.5 48 9.796875 48 
C 11.90625 48 13.703125 49.296875 13.703125 51.890625 
C 13.703125 54.46875 11.90625 55.765625 9.796875 55.765625 
C 9.40625 55.765625 8.90625 55.765625 8.5 55.578125 
C 11.40625 61.859375 19.296875 63 22.796875 63 
C 26.296875 63 32.90625 61.328125 32.90625 51.875 
C 32.90625 49.109375 32.5 44.1875 29.09375 39.84375 
C 26.09375 36 22.703125 36 19.40625 35.6875 
C 18.90625 35.6875 16.59375 35.453125 16.203125 35.453125 
C 15.5 35.359375 15.09375 35.265625 15.09375 34.5 
C 15.09375 33.796875 15.203125 33.703125 17.203125 33.703125 
z
" id="CMR17-51"/>
      </defs>
      <use transform="scale(0.996264)" xlink:href="#CMMI12-12"/>
      <use transform="translate(60.594016 0)scale(0.996264)" xlink:href="#CMR17-61"/>
      <use transform="translate(132.308804 0)scale(0.996264)" xlink:href="#CMR17-51"/>
      <use transform="translate(177.999281 0)scale(0.996264)" xlink:href="#CMR17-101"/>
      <use transform="translate(218.484942 0)scale(0.996264)" xlink:href="#CMR17-45"/>
      <use transform="translate(248.560908 0)scale(0.996264)" xlink:href="#CMR17-48"/>
      <use transform="translate(294.251385 0)scale(0.996264)" xlink:href="#CMR17-54"/>
     </g>
    </g>
    <g id="line2d_45">
     <path d="M 341.11762 98.604813 
L 361.11762 98.604813 
" style="fill:none;stroke:#d62728;stroke-dasharray:9.6,2.4,1.5,2.4;stroke-dashoffset:0;stroke-width:1.5;"/>
    </g>
    <g id="line2d_46"/>
    <g id="text_34">
     <!-- \(\beta\)=4e-06 -->
     <g transform="translate(369.11762 102.104813)scale(0.1 -0.1)">
      <use transform="scale(0.996264)" xlink:href="#CMMI12-12"/>
      <use transform="translate(60.594016 0)scale(0.996264)" xlink:href="#CMR17-61"/>
      <use transform="translate(132.308804 0)scale(0.996264)" xlink:href="#CMR17-52"/>
      <use transform="translate(177.999281 0)scale(0.996264)" xlink:href="#CMR17-101"/>
      <use transform="translate(218.484942 0)scale(0.996264)" xlink:href="#CMR17-45"/>
      <use transform="translate(248.560908 0)scale(0.996264)" xlink:href="#CMR17-48"/>
      <use transform="translate(294.251385 0)scale(0.996264)" xlink:href="#CMR17-54"/>
     </g>
    </g>
   </g>
  </g>
 </g>
 <defs>
  <clipPath id="p93ac695a6d">
   <rect height="266.112" width="162.327273" x="57.6" y="41.472"/>
  </clipPath>
  <clipPath id="p6ac243bfa7">
   <rect height="266.112" width="162.327273" x="252.392727" y="41.472"/>
  </clipPath>
 </defs>
</svg>
